<?xml version="1.0" encoding="iso-8859-1"?>
<!-- Uploaded to: SVG Repo, www.svgrepo.com, Generator: SVG Repo Mixer Tools -->
<svg version="1.1" id="Layer_1" xmlns="http://www.w3.org/2000/svg" xmlns:xlink="http://www.w3.org/1999/xlink" 
	 viewBox="0 0 512 512" xml:space="preserve">
<path style="fill:#D7EBFF;" d="M5.565,100.174v395.13c0,9.223,7.479,16.696,16.696,16.696h467.478
	c9.217,0,16.696-7.473,16.696-16.696v-395.13H5.565z"/>
<path style="fill:#C4E2FF;" d="M256,512h233.739c9.217,0,16.696-7.473,16.696-16.696v-395.13H256V512z"/>
<rect x="38.957" y="133.565" style="fill:#FFFFFF;" width="434.087" height="345.043"/>
<rect x="256" y="133.565" style="fill:#EDF0F2;" width="217.043" height="345.043"/>
<path style="fill:#C9D2D9;" d="M222.609,422.957H89.043c-9.217,0-16.696-7.473-16.696-16.696V272.696
	c0-9.223,7.479-16.696,16.696-16.696h133.565c9.217,0,16.696,7.473,16.696,16.696v133.565
	C239.304,415.484,231.826,422.957,222.609,422.957z"/>
<g>
	<path style="fill:#B7C4CC;" d="M422.957,289.391H289.391c-9.217,0-16.696-7.473-16.696-16.696c0-9.223,7.479-16.696,16.696-16.696
		h133.565c9.217,0,16.696,7.473,16.696,16.696C439.652,281.918,432.174,289.391,422.957,289.391z"/>
	<path style="fill:#B7C4CC;" d="M422.957,422.957H289.391c-9.217,0-16.696-7.473-16.696-16.696c0-9.223,7.479-16.696,16.696-16.696
		h133.565c9.217,0,16.696,7.473,16.696,16.696C439.652,415.484,432.174,422.957,422.957,422.957z"/>
	<path style="fill:#B7C4CC;" d="M422.957,356.174H289.391c-9.217,0-16.696-7.473-16.696-16.696s7.479-16.696,16.696-16.696h133.565
		c9.217,0,16.696,7.473,16.696,16.696S432.174,356.174,422.957,356.174z"/>
</g>
<path style="fill:#FFE14D;" d="M155.826,200.348L155.826,200.348c-27.662,0-50.087-22.424-50.087-50.087V83.478h100.174v66.783
	C205.913,177.923,183.489,200.348,155.826,200.348z"/>
<path style="fill:#E6563A;" d="M256,200.348L256,200.348c-27.662,0-50.087-22.424-50.087-50.087V83.478h100.174v66.783
	C306.087,177.923,283.662,200.348,256,200.348z"/>
<path style="fill:#FFCC33;" d="M356.174,200.348L356.174,200.348c-27.662,0-50.087-22.424-50.087-50.087V83.478h100.174v66.783
	C406.261,177.923,383.836,200.348,356.174,200.348z"/>
<path style="fill:#D9472B;" d="M256,200.348c27.664,0,50.087-22.424,50.087-50.087V83.478H256V200.348z"/>
<path style="fill:#E6563A;" d="M55.652,200.348c27.664,0,50.087-22.424,50.087-50.087V83.478H38.957v113.803
	C44.202,199.146,49.766,200.348,55.652,200.348z"/>
<path style="fill:#D9472B;" d="M456.348,200.348c5.886,0,11.45-1.202,16.696-3.066V83.478h-66.783v66.783
	C406.261,177.923,428.684,200.348,456.348,200.348z"/>
<path style="fill:#3ABBE6;" d="M489.739,0H22.261C13.044,0,5.565,7.473,5.565,16.696v83.478h500.87V16.696
	C506.435,7.473,498.956,0,489.739,0z"/>
<path style="fill:#33A6CC;" d="M489.739,0H256v100.174h250.435V16.696C506.435,7.473,498.956,0,489.739,0z"/>
<circle style="fill:#E6563A;" cx="72.348" cy="55.652" r="16.696"/>
<g>
	<circle style="fill:#FFFFFF;" cx="139.13" cy="55.652" r="16.696"/>
	<circle style="fill:#FFFFFF;" cx="205.913" cy="55.652" r="16.696"/>
</g>
</svg>